<svg xmlns="http://www.w3.org/2000/svg" width="960" height="560" viewBox="0 0 960 560">
<rect width="100%" height="100%" fill="white"/>
<style>text{font-family:DejaVu Sans,Arial,sans-serif;fill:#111827}.grid{stroke:#e5e7eb;stroke-width:1}.axis{stroke:#374151;stroke-width:1.2}.thin{fill:none;stroke-width:1.2;opacity:.62}.mean{fill:none;stroke-width:3}</style>
<text x="480.0" y="31" text-anchor="middle" font-size="20" font-weight="600">Response-token throughput</text>
<line class="grid" x1="92" y1="62.00" x2="932" y2="62.00"/>
<text x="82" y="66.00" text-anchor="end" font-size="12">453.7</text>
<line class="grid" x1="92" y1="146.00" x2="932" y2="146.00"/>
<text x="82" y="150.00" text-anchor="end" font-size="12">378</text>
<line class="grid" x1="92" y1="230.00" x2="932" y2="230.00"/>
<text x="82" y="234.00" text-anchor="end" font-size="12">302.4</text>
<line class="grid" x1="92" y1="314.00" x2="932" y2="314.00"/>
<text x="82" y="318.00" text-anchor="end" font-size="12">226.7</text>
<line class="grid" x1="92" y1="398.00" x2="932" y2="398.00"/>
<text x="82" y="402.00" text-anchor="end" font-size="12">151</text>
<line class="grid" x1="92" y1="482.00" x2="932" y2="482.00"/>
<text x="82" y="486.00" text-anchor="end" font-size="12">75.33</text>
<line class="grid" x1="92.00" y1="62" x2="92.00" y2="482"/>
<text x="92.00" y="505" text-anchor="middle" font-size="12">0</text>
<line class="grid" x1="263.43" y1="62" x2="263.43" y2="482"/>
<text x="263.43" y="505" text-anchor="middle" font-size="12">10</text>
<line class="grid" x1="434.86" y1="62" x2="434.86" y2="482"/>
<text x="434.86" y="505" text-anchor="middle" font-size="12">20</text>
<line class="grid" x1="606.29" y1="62" x2="606.29" y2="482"/>
<text x="606.29" y="505" text-anchor="middle" font-size="12">30</text>
<line class="grid" x1="777.71" y1="62" x2="777.71" y2="482"/>
<text x="777.71" y="505" text-anchor="middle" font-size="12">40</text>
<line class="grid" x1="932.00" y1="62" x2="932.00" y2="482"/>
<text x="932.00" y="505" text-anchor="middle" font-size="12">49</text>
<line class="axis" x1="92" y1="482" x2="932" y2="482"/>
<line class="axis" x1="92" y1="62" x2="92" y2="482"/>
<text x="512.0" y="536" text-anchor="middle" font-size="14">Training step</text>
<text x="23" y="272.0" text-anchor="middle" font-size="14" transform="rotate(-90 23 272.0)">Response tokens / second</text>
<polyline class="thin" stroke="#9db9f6" points="92.00,450.56 109.14,108.45 126.29,109.41 143.43,95.13 160.57,92.08 177.71,94.75 194.86,100.10 212.00,99.19 229.14,96.40 246.29,101.38 263.43,101.73 280.57,105.70 297.71,96.95 314.86,104.32 332.00,109.64 349.14,103.08 366.29,109.75 383.43,107.46 400.57,96.06 417.71,102.01 434.86,101.50 452.00,98.08 469.14,96.11 486.29,105.08 503.43,104.64 520.57,101.71 537.71,106.76 554.86,106.36 572.00,110.53 589.14,119.21 606.29,100.45 623.43,113.03 640.57,116.86 657.71,100.40 674.86,98.41 692.00,105.73 709.14,103.42 726.29,109.66 743.43,109.61 760.57,102.37 777.71,109.81 794.86,109.92 812.00,115.49 829.14,106.22 846.29,96.18 863.43,112.16 880.57,109.07 897.71,111.13 914.86,107.07 932.00,113.46"/>
<polyline class="thin" stroke="#9db9f6" points="92.00,451.81 109.14,121.97 126.29,110.05 143.43,95.21 160.57,97.19 177.71,93.77 194.86,93.77 212.00,92.16 229.14,91.19 246.29,96.10 263.43,94.29 280.57,103.01 297.71,100.45 314.86,99.12 332.00,108.70 349.14,99.43 366.29,111.58 383.43,100.75 400.57,94.17 417.71,102.39 434.86,96.02 452.00,100.33 469.14,97.50 486.29,100.84 503.43,101.86 520.57,94.97 537.71,109.94 554.86,102.03 572.00,109.96 589.14,126.17 606.29,100.64 623.43,106.02 640.57,112.06 657.71,97.72 674.86,103.20 692.00,110.21 709.14,107.24 726.29,108.44 743.43,105.67 760.57,95.64 777.71,110.30 794.86,102.67 812.00,105.72 829.14,101.75 846.29,98.23 863.43,108.28 880.57,106.01 897.71,110.34 914.86,114.17 932.00,109.63"/>
<polyline class="thin" stroke="#9db9f6" points="92.00,452.06 109.14,112.78 126.29,102.53 143.43,90.97 160.57,94.60 177.71,99.92 194.86,94.88 212.00,92.04 229.14,91.45 246.29,95.93 263.43,100.56 280.57,100.04 297.71,99.75 314.86,99.03 332.00,106.17 349.14,93.01 366.29,106.72 383.43,99.46 400.57,94.92 417.71,103.84 434.86,96.19 452.00,107.09 469.14,97.84 486.29,102.16 503.43,103.41 520.57,104.13 537.71,111.32 554.86,102.25 572.00,115.70 589.14,118.58 606.29,101.09 623.43,135.27 640.57,110.34 657.71,101.12 674.86,97.74 692.00,105.66 709.14,109.15 726.29,112.54 743.43,104.18 760.57,99.90 777.71,97.04 794.86,108.93 812.00,108.41 829.14,96.96 846.29,92.05 863.43,114.11 880.57,99.25 897.71,117.86 914.86,109.46 932.00,105.76"/>
<polyline class="mean" stroke="#2563eb" points="92.00,451.48 109.14,114.40 126.29,107.33 143.43,93.77 160.57,94.62 177.71,96.15 194.86,96.25 212.00,94.46 229.14,93.02 246.29,97.80 263.43,98.86 280.57,102.92 297.71,99.05 314.86,100.82 332.00,108.17 349.14,98.51 366.29,109.35 383.43,102.56 400.57,95.05 417.71,102.75 434.86,97.90 452.00,101.83 469.14,97.15 486.29,102.69 503.43,103.30 520.57,100.27 537.71,109.34 554.86,103.55 572.00,112.06 589.14,121.32 606.29,100.73 623.43,118.11 640.57,113.09 657.71,99.75 674.86,99.78 692.00,107.20 709.14,106.60 726.29,110.21 743.43,106.49 760.57,99.31 777.71,105.71 794.86,107.17 812.00,109.87 829.14,101.65 846.29,95.49 863.43,111.52 880.57,104.78 897.71,113.11 914.86,110.24 932.00,109.62"/>
<polyline class="thin" stroke="#ef9d9d" points="92.00,451.03 109.14,111.34 126.29,110.45 143.43,101.29 160.57,99.31 177.71,102.27 194.86,104.16 212.00,98.13 229.14,101.24 246.29,101.78 263.43,102.84 280.57,113.74 297.71,105.96 314.86,103.46 332.00,105.29 349.14,105.38 366.29,107.49 383.43,111.46 400.57,100.00 417.71,113.01 434.86,101.98 452.00,103.66 469.14,102.40 486.29,106.70 503.43,113.56 520.57,108.45 537.71,113.05 554.86,105.53 572.00,115.43 589.14,131.34 606.29,107.48 623.43,108.30 640.57,114.78 657.71,100.44 674.86,102.82 692.00,104.42 709.14,106.28 726.29,112.43 743.43,109.51 760.57,105.21 777.71,109.82 794.86,115.70 812.00,111.20 829.14,112.28 846.29,96.90 863.43,112.54 880.57,109.89 897.71,115.28 914.86,110.22 932.00,116.54"/>
<polyline class="thin" stroke="#ef9d9d" points="92.00,451.75 109.14,115.82 126.29,115.53 143.43,100.02 160.57,101.81 177.71,97.46 194.86,105.38 212.00,97.80 229.14,96.70 246.29,102.69 263.43,103.63 280.57,105.13 297.71,99.97 314.86,109.96 332.00,112.13 349.14,101.82 366.29,105.77 383.43,108.42 400.57,99.93 417.71,119.91 434.86,109.23 452.00,108.33 469.14,104.43 486.29,97.82 503.43,111.94 520.57,108.91 537.71,113.86 554.86,106.46 572.00,116.02 589.14,136.77 606.29,99.13 623.43,115.05 640.57,117.69 657.71,100.83 674.86,108.43 692.00,113.15 709.14,110.27 726.29,115.76 743.43,105.06 760.57,107.27 777.71,121.16 794.86,114.32 812.00,111.72 829.14,100.15 846.29,109.96 863.43,111.45 880.57,107.55 897.71,117.56 914.86,109.49 932.00,110.64"/>
<polyline class="thin" stroke="#ef9d9d" points="92.00,451.24 109.14,112.33 126.29,113.83 143.43,100.76 160.57,107.51 177.71,102.99 194.86,109.59 212.00,102.69 229.14,103.00 246.29,109.51 263.43,106.92 280.57,105.07 297.71,104.54 314.86,111.66 332.00,110.89 349.14,106.36 366.29,115.98 383.43,112.96 400.57,103.67 417.71,111.18 434.86,105.24 452.00,112.71 469.14,107.85 486.29,102.54 503.43,114.77 520.57,107.14 537.71,114.63 554.86,103.98 572.00,109.52 589.14,132.17 606.29,101.37 623.43,110.70 640.57,115.37 657.71,107.23 674.86,110.69 692.00,119.15 709.14,107.98 726.29,119.01 743.43,109.94 760.57,103.83 777.71,111.48 794.86,111.09 812.00,119.39 829.14,105.17 846.29,112.54 863.43,115.53 880.57,108.75 897.71,122.53 914.86,114.57 932.00,112.75"/>
<polyline class="mean" stroke="#dc2626" points="92.00,451.34 109.14,113.17 126.29,113.27 143.43,100.69 160.57,102.87 177.71,100.90 194.86,106.38 212.00,99.54 229.14,100.31 246.29,104.66 263.43,104.47 280.57,107.98 297.71,103.49 314.86,108.36 332.00,109.44 349.14,104.52 366.29,109.75 383.43,110.95 400.57,101.20 417.71,114.70 434.86,105.48 452.00,108.23 469.14,104.90 486.29,102.35 503.43,113.42 520.57,108.17 537.71,113.85 554.86,105.32 572.00,113.66 589.14,133.43 606.29,102.66 623.43,111.35 640.57,115.95 657.71,102.83 674.86,107.31 692.00,112.24 709.14,108.18 726.29,115.74 743.43,108.17 760.57,105.44 777.71,114.16 794.86,113.70 812.00,114.10 829.14,105.87 846.29,106.47 863.43,113.17 880.57,108.73 897.71,118.46 914.86,111.43 932.00,113.31"/>
<polyline class="thin" stroke="#8ed0bc" points="92.00,453.03 109.14,115.61 126.29,106.91 143.43,94.88 160.57,98.17 177.71,94.89 194.86,99.55 212.00,99.53 229.14,97.12 246.29,100.02 263.43,95.47 280.57,103.74 297.71,98.48 314.86,103.71 332.00,102.06 349.14,101.24 366.29,108.32 383.43,108.10 400.57,98.85 417.71,107.67 434.86,100.26 452.00,109.24 469.14,97.24 486.29,105.44 503.43,103.29 520.57,102.09 537.71,102.43 554.86,97.72 572.00,108.93 589.14,119.21 606.29,96.11 623.43,105.12 640.57,108.36 657.71,92.30 674.86,102.56 692.00,109.23 709.14,103.33 726.29,103.76 743.43,96.59 760.57,98.09 777.71,102.87 794.86,110.05 812.00,116.18 829.14,101.06 846.29,100.56 863.43,113.95 880.57,103.27 897.71,108.49 914.86,108.85 932.00,111.18"/>
<polyline class="thin" stroke="#8ed0bc" points="92.00,453.03 109.14,109.02 126.29,114.35 143.43,97.44 160.57,103.24 177.71,95.43 194.86,100.18 212.00,94.26 229.14,98.63 246.29,103.14 263.43,98.34 280.57,100.70 297.71,105.84 314.86,109.31 332.00,103.36 349.14,95.41 366.29,112.82 383.43,101.82 400.57,94.96 417.71,112.84 434.86,99.50 452.00,106.35 469.14,99.65 486.29,107.43 503.43,105.37 520.57,101.15 537.71,101.58 554.86,109.79 572.00,108.61 589.14,124.24 606.29,92.94 623.43,107.53 640.57,110.06 657.71,98.53 674.86,100.85 692.00,112.52 709.14,99.62 726.29,109.05 743.43,111.85 760.57,102.17 777.71,105.06 794.86,105.02 812.00,107.58 829.14,101.65 846.29,95.54 863.43,107.70 880.57,108.00 897.71,109.63 914.86,102.99 932.00,107.74"/>
<polyline class="thin" stroke="#8ed0bc" points="92.00,451.61 109.14,112.10 126.29,108.96 143.43,94.42 160.57,93.42 177.71,96.86 194.86,95.93 212.00,95.04 229.14,96.50 246.29,96.20 263.43,94.39 280.57,104.96 297.71,103.38 314.86,107.56 332.00,102.44 349.14,101.68 366.29,106.51 383.43,111.13 400.57,98.15 417.71,112.68 434.86,97.91 452.00,111.78 469.14,98.87 486.29,101.13 503.43,108.14 520.57,100.82 537.71,119.16 554.86,101.65 572.00,106.82 589.14,127.83 606.29,102.71 623.43,114.57 640.57,117.15 657.71,101.45 674.86,106.45 692.00,118.75 709.14,110.68 726.29,109.11 743.43,104.58 760.57,101.51 777.71,103.57 794.86,104.78 812.00,111.64 829.14,108.33 846.29,95.40 863.43,110.85 880.57,98.36 897.71,117.04 914.86,108.96 932.00,111.98"/>
<polyline class="mean" stroke="#059669" points="92.00,452.56 109.14,112.24 126.29,110.07 143.43,95.58 160.57,98.28 177.71,95.73 194.86,98.55 212.00,96.28 229.14,97.42 246.29,99.78 263.43,96.07 280.57,103.13 297.71,102.57 314.86,106.86 332.00,102.62 349.14,99.45 366.29,109.22 383.43,107.02 400.57,97.32 417.71,111.06 434.86,99.22 452.00,109.12 469.14,98.59 486.29,104.67 503.43,105.60 520.57,101.35 537.71,107.72 554.86,103.05 572.00,108.12 589.14,123.76 606.29,97.25 623.43,109.07 640.57,111.86 657.71,97.43 674.86,103.29 692.00,113.50 709.14,104.54 726.29,107.31 743.43,104.34 760.57,100.59 777.71,103.83 794.86,106.61 812.00,111.80 829.14,103.68 846.29,97.17 863.43,110.83 880.57,103.21 897.71,111.72 914.86,106.94 932.00,110.30"/>
<line x1="102" y1="80" x2="132" y2="80" stroke="#2563eb" stroke-width="3"/>
<text x="140" y="84" font-size="12">GRPO mean (thin: seeds)</text>
<line x1="102" y1="103" x2="132" y2="103" stroke="#dc2626" stroke-width="3"/>
<text x="140" y="107" font-size="12">REINFORCE++ mean (thin: seeds)</text>
<line x1="102" y1="126" x2="132" y2="126" stroke="#059669" stroke-width="3"/>
<text x="140" y="130" font-size="12">REINFORCE++-baseline mean (thin: seeds)</text>
</svg>
